<?xml version="1.0" encoding="utf-8"?>
<!-- Generator: Adobe Illustrator 15.0.0, SVG Export Plug-In . SVG Version: 6.00 Build 0)  -->
<!DOCTYPE svg PUBLIC "-//W3C//DTD SVG 1.1//EN" "http://www.w3.org/Graphics/SVG/1.1/DTD/svg11.dtd">
<svg version="1.1" id="图层_1" xmlns="http://www.w3.org/2000/svg" xmlns:xlink="http://www.w3.org/1999/xlink" x="0px" y="0px"
	 width="200px" height="90px" viewBox="0 0 200 90" enable-background="new 0 0 200 90" xml:space="preserve">
<g>
	<path fill="#323333" d="M70.985,21.911C70.985,21.911,70.985,21.911,70.985,21.911l-0.001,8.061c0,0.038-0.004,0.073-0.011,0.109
		c0.002,0.201,0.006,0.4,0.006,0.601c0,0.633-0.01,1.265-0.027,1.894c-0.001,0.035-0.002,0.07-0.003,0.105
		c-0.017,0.604-0.044,1.206-0.077,1.806c-0.003,0.06-0.005,0.12-0.009,0.181c-0.034,0.583-0.076,1.164-0.123,1.744
		c-0.006,0.073-0.013,0.149-0.018,0.223c-0.049,0.57-0.107,1.137-0.169,1.703c-0.008,0.081-0.019,0.163-0.027,0.244
		c-0.064,0.56-0.136,1.12-0.214,1.677c-0.012,0.082-0.022,0.164-0.035,0.246c-0.08,0.558-0.167,1.113-0.259,1.667
		c-0.014,0.077-0.027,0.153-0.041,0.23c-0.096,0.559-0.198,1.116-0.308,1.67c-0.014,0.065-0.027,0.13-0.041,0.196
		c-0.113,0.565-0.234,1.128-0.361,1.689c-0.01,0.046-0.021,0.091-0.033,0.138c-0.132,0.58-0.272,1.157-0.42,1.731
		c-0.005,0.015-0.008,0.03-0.012,0.046c-0.152,0.59-0.312,1.176-0.48,1.758c-0.003,0.012-0.006,0.023-0.01,0.035
		c-0.165,0.57-0.336,1.136-0.514,1.7c-0.015,0.042-0.028,0.086-0.041,0.128c-0.174,0.543-0.353,1.082-0.54,1.618
		c-0.021,0.062-0.042,0.124-0.064,0.187c-0.183,0.522-0.372,1.042-0.566,1.559c-0.028,0.073-0.056,0.146-0.083,0.22
		c-0.194,0.509-0.394,1.014-0.6,1.517c-0.032,0.078-0.064,0.155-0.096,0.234c-0.206,0.498-0.418,0.993-0.636,1.486
		c-0.034,0.077-0.069,0.155-0.103,0.233c-0.221,0.493-0.445,0.982-0.676,1.469c-0.015,0.029-0.027,0.059-0.041,0.09
		c-0.005,0.009-0.01,0.018-0.016,0.027c-0.23,0.483-0.464,0.963-0.707,1.439c-5.553,9.809-13.457,18.107-22.946,24.14
		c-0.079,0.061-0.161,0.114-0.249,0.16c-0.01,0.008-0.019,0.014-0.029,0.021h-0.011c-0.227,0.111-0.48,0.176-0.75,0.176
		c-0.018,0-0.035-0.002-0.053-0.002c-0.017,0-0.034,0.002-0.051,0.002c-0.27,0-0.524-0.064-0.75-0.176h-0.01
		c-0.011-0.008-0.02-0.014-0.03-0.021c-0.089-0.046-0.172-0.1-0.25-0.16c-9.488-6.032-17.393-14.331-22.946-24.14
		c-0.241-0.477-0.476-0.956-0.706-1.439c-0.005-0.01-0.01-0.019-0.015-0.027c-0.015-0.031-0.027-0.061-0.042-0.09
		c-0.23-0.486-0.456-0.976-0.676-1.469c-0.034-0.078-0.068-0.156-0.103-0.233c-0.217-0.493-0.429-0.988-0.635-1.486
		c-0.033-0.079-0.064-0.156-0.097-0.234c-0.206-0.503-0.405-1.008-0.6-1.517c-0.027-0.073-0.055-0.146-0.083-0.22
		c-0.194-0.517-0.384-1.037-0.568-1.559c-0.021-0.063-0.042-0.125-0.063-0.187c-0.187-0.537-0.367-1.075-0.541-1.618
		c-0.013-0.042-0.026-0.086-0.04-0.128c-0.178-0.564-0.351-1.13-0.515-1.7c-0.004-0.012-0.006-0.023-0.009-0.035
		c-0.168-0.582-0.329-1.168-0.48-1.758c-0.004-0.016-0.009-0.031-0.013-0.046c-0.149-0.574-0.289-1.151-0.421-1.731
		C9.938,46.045,9.928,46,9.917,45.954c-0.128-0.561-0.248-1.125-0.361-1.689c-0.014-0.066-0.027-0.131-0.04-0.196
		c-0.11-0.554-0.213-1.111-0.31-1.67c-0.013-0.077-0.026-0.153-0.039-0.23c-0.093-0.554-0.18-1.109-0.26-1.667
		c-0.012-0.082-0.023-0.165-0.035-0.246C8.794,39.7,8.722,39.14,8.657,38.58c-0.009-0.081-0.018-0.164-0.027-0.244
		c-0.063-0.566-0.12-1.132-0.169-1.703c-0.006-0.074-0.012-0.148-0.017-0.223c-0.048-0.58-0.09-1.161-0.125-1.744
		c-0.002-0.061-0.005-0.121-0.009-0.181c-0.033-0.601-0.06-1.202-0.077-1.806c-0.001-0.035-0.002-0.07-0.003-0.105
		c-0.016-0.629-0.026-1.26-0.026-1.894c0-0.201,0.003-0.4,0.004-0.601c-0.004-0.036-0.011-0.072-0.011-0.109v-8.061
		c-0.001,0-0.001,0-0.001,0c0-0.025,0-0.049,0.001-0.073V21.4c0-0.02,0.004-0.039,0.006-0.058v0.016v0.053H8.21
		c-0.001-0.017-0.005-0.035-0.005-0.053c0-0.524,0.423-0.947,0.946-0.947c0.013,0,0.025,0.003,0.038,0.004v-0.001
		c0.184-0.001,0.368-0.008,0.551-0.011c0.254-0.005,0.51-0.012,0.764-0.022c0.056-0.003,0.11-0.005,0.166-0.008
		c10.798-0.47,20.541-4.996,27.75-12.092c0.254-0.355,0.668-0.588,1.138-0.588c0.012,0,0.023,0.003,0.035,0.004
		c0.012-0.001,0.023-0.004,0.035-0.004c0.471,0,0.884,0.233,1.139,0.588c7.208,7.096,16.951,11.623,27.75,12.092
		c0.055,0.003,0.109,0.005,0.165,0.008c0.254,0.01,0.509,0.017,0.765,0.022c0.184,0.003,0.366,0.01,0.551,0.011v0.001
		c0.012-0.001,0.023-0.004,0.037-0.004c0.522,0,0.947,0.423,0.947,0.947c0,0.018-0.005,0.036-0.006,0.053h0.006v-0.053v-0.016
		c0.001,0.019,0.005,0.038,0.005,0.058v0.437C70.984,21.861,70.985,21.886,70.985,21.911z"/>
	
		<linearGradient id="SVGID_1_" gradientUnits="userSpaceOnUse" x1="364.1572" y1="-212.6831" x2="426.9463" y2="-212.6831" gradientTransform="matrix(1 0 0 -1 -355.96 -180.6602)">
		<stop  offset="0.5" style="stop-color:#45757C"/>
		<stop  offset="0.5" style="stop-color:#4F949D"/>
	</linearGradient>
	<path fill="url(#SVGID_1_)" d="M70.985,21.911C70.985,21.911,70.985,21.911,70.985,21.911l-0.001,8.061
		c0,0.038-0.004,0.073-0.011,0.109c0.002,0.201,0.006,0.4,0.006,0.601c0,0.499-0.008,0.998-0.02,1.493
		c-0.001,0.103-0.003,0.205-0.006,0.308c-0.001,0.012-0.001,0.022-0.001,0.035c0,0.001,0,0.004,0,0.006
		c-0.002,0.074-0.006,0.147-0.008,0.221c-0.011,0.399-0.025,0.797-0.043,1.194c-0.003,0.072-0.007,0.143-0.011,0.215
		c-0.003,0.061-0.008,0.124-0.012,0.186c0,0.004,0,0.009,0,0.014c-0.004,0.077-0.009,0.153-0.015,0.23
		c-0.017,0.319-0.034,0.639-0.057,0.958c-0.003,0.054-0.007,0.11-0.012,0.164c-0.01,0.149-0.025,0.298-0.038,0.448
		c0,0.005,0,0.011,0,0.015c-0.003,0.047-0.008,0.094-0.012,0.141c-0.023,0.295-0.046,0.59-0.074,0.884
		c-0.006,0.072-0.016,0.145-0.021,0.218c-0.017,0.169-0.039,0.336-0.055,0.503c-0.002,0.019-0.004,0.037-0.006,0.055
		c-0.017,0.169-0.037,0.338-0.056,0.508c-0.048,0.42-0.099,0.84-0.155,1.259c-0.001,0.005-0.001,0.01-0.003,0.016
		c0,0.009-0.001,0.017-0.002,0.025c-0.031,0.231-0.059,0.462-0.091,0.692c-0.005,0.035-0.01,0.069-0.015,0.104
		c-0.013,0.087-0.028,0.169-0.04,0.254c-0.036,0.23-0.071,0.46-0.108,0.688c-0.012,0.072-0.025,0.144-0.037,0.214
		c-0.079,0.487-0.164,0.974-0.252,1.458c-0.01,0.05-0.017,0.101-0.027,0.151c-0.038,0.209-0.076,0.419-0.117,0.628
		c-0.021,0.111-0.046,0.221-0.069,0.333c-0.042,0.209-0.086,0.416-0.13,0.623c-0.008,0.038-0.015,0.072-0.023,0.108
		c-0.045,0.213-0.089,0.43-0.138,0.642c-0.035,0.152-0.072,0.305-0.108,0.459c-0.049,0.22-0.101,0.44-0.156,0.661
		c-0.044,0.188-0.088,0.373-0.134,0.559c-0.057,0.225-0.117,0.447-0.175,0.672c-0.059,0.226-0.118,0.453-0.18,0.68
		c-0.025,0.096-0.052,0.192-0.08,0.288c-0.105,0.382-0.212,0.762-0.324,1.141c-0.006,0.02-0.012,0.037-0.017,0.057
		c-0.044,0.147-0.09,0.295-0.135,0.443c-0.118,0.389-0.237,0.778-0.363,1.164c-0.014,0.043-0.029,0.087-0.044,0.132
		c-0.012,0.039-0.025,0.079-0.038,0.118c-0.058,0.17-0.113,0.339-0.171,0.509c-0.147,0.438-0.298,0.872-0.454,1.304
		c-0.04,0.111-0.08,0.224-0.12,0.335c-0.186,0.51-0.38,1.016-0.58,1.52c-0.029,0.076-0.055,0.15-0.084,0.225l-0.002-0.002
		c-0.055,0.139-0.109,0.278-0.165,0.416c0,0,0,0,0,0.001l-7.697-8.94l0.101-10.281l-14.527-8.803l-4.282-2.469l-4.282,2.469
		l-14.526,8.803l0.099,10.281l-7.696,8.94c0-0.001,0-0.001,0-0.001c-0.056-0.138-0.109-0.277-0.164-0.416l-0.002,0.002
		c-0.03-0.074-0.057-0.148-0.085-0.225c-0.199-0.504-0.393-1.01-0.579-1.52c-0.041-0.111-0.08-0.224-0.12-0.335
		c-0.155-0.432-0.307-0.866-0.454-1.304c-0.058-0.17-0.115-0.339-0.17-0.509c-0.014-0.039-0.028-0.079-0.041-0.118
		c-0.015-0.044-0.03-0.089-0.044-0.132c-0.124-0.387-0.243-0.775-0.362-1.164c-0.044-0.148-0.09-0.296-0.135-0.443
		c-0.004-0.02-0.011-0.038-0.017-0.057c-0.111-0.379-0.22-0.759-0.326-1.141c-0.026-0.096-0.053-0.192-0.078-0.288
		c-0.062-0.227-0.121-0.454-0.18-0.68c-0.059-0.225-0.119-0.447-0.175-0.672c-0.046-0.186-0.09-0.371-0.135-0.559
		c-0.053-0.221-0.105-0.441-0.156-0.661c-0.036-0.154-0.073-0.306-0.107-0.459c-0.047-0.212-0.091-0.429-0.137-0.642
		c-0.008-0.036-0.015-0.07-0.022-0.108c-0.044-0.207-0.089-0.414-0.131-0.623c-0.022-0.111-0.047-0.221-0.069-0.333
		c-0.041-0.209-0.077-0.419-0.117-0.628c-0.009-0.05-0.017-0.102-0.025-0.151c-0.089-0.484-0.173-0.971-0.253-1.458
		c-0.012-0.07-0.025-0.142-0.037-0.214c-0.037-0.228-0.072-0.458-0.108-0.688c-0.013-0.085-0.028-0.167-0.04-0.254
		c-0.005-0.035-0.01-0.069-0.016-0.104c-0.033-0.23-0.06-0.461-0.09-0.692c-0.002-0.008-0.004-0.017-0.004-0.025
		c0-0.006-0.001-0.01-0.001-0.016c-0.056-0.419-0.109-0.839-0.156-1.259c-0.019-0.17-0.038-0.339-0.056-0.508
		c-0.002-0.019-0.003-0.037-0.005-0.055C8.57,37.747,8.549,37.58,8.533,37.41c-0.007-0.072-0.016-0.145-0.022-0.217
		c-0.027-0.294-0.049-0.589-0.074-0.884c-0.004-0.046-0.008-0.093-0.012-0.141c0-0.004,0-0.011-0.001-0.015
		c-0.011-0.15-0.027-0.299-0.038-0.448c-0.004-0.054-0.007-0.109-0.011-0.164c-0.021-0.319-0.038-0.639-0.056-0.958
		c-0.006-0.077-0.011-0.153-0.015-0.23c0-0.004,0-0.009,0-0.014c-0.004-0.062-0.008-0.125-0.012-0.186
		c-0.003-0.072-0.007-0.144-0.011-0.215c-0.019-0.397-0.031-0.795-0.043-1.194c-0.003-0.074-0.006-0.147-0.007-0.221
		C8.23,32.521,8.23,32.519,8.23,32.517c0-0.012-0.001-0.023-0.001-0.035c-0.002-0.103-0.004-0.205-0.007-0.308
		c-0.01-0.497-0.017-0.994-0.017-1.493c0-0.201,0.003-0.4,0.004-0.601c-0.004-0.036-0.011-0.072-0.011-0.109v-8.061
		c-0.001,0-0.001,0-0.001,0c0-0.025,0-0.049,0.001-0.073V21.4c0-0.02,0.004-0.04,0.006-0.058v0.016v0.053H8.21
		c-0.001-0.017-0.005-0.035-0.005-0.053c0-0.524,0.423-0.947,0.946-0.947c0.013,0,0.025,0.003,0.038,0.004v-0.001
		c0.184-0.001,0.368-0.008,0.55-0.011c0.255-0.005,0.511-0.012,0.765-0.022c0.056-0.003,0.111-0.005,0.166-0.008
		c10.798-0.47,20.541-4.996,27.75-12.092c0.254-0.355,0.668-0.588,1.138-0.588c0.012,0,0.022,0.003,0.035,0.004
		c0.012-0.001,0.022-0.004,0.035-0.004c0.47,0,0.884,0.233,1.139,0.588c7.208,7.096,16.95,11.623,27.749,12.092
		c0.056,0.003,0.11,0.005,0.166,0.008c0.254,0.01,0.509,0.017,0.766,0.022c0.183,0.003,0.366,0.01,0.55,0.011v0.001
		c0.013-0.001,0.023-0.004,0.037-0.004c0.522,0,0.947,0.423,0.947,0.947c0,0.018-0.005,0.036-0.007,0.053h0.007v-0.053v-0.016
		c0,0.018,0.005,0.038,0.005,0.058v0.437C70.984,21.861,70.985,21.886,70.985,21.911z"/>
	<path fill="#FFFFFF" d="M60.469,30.369C60.468,30.369,60.468,30.369,60.469,30.369l-0.001,5.36c0,0.026-0.004,0.049-0.007,0.074
		c0.001,0.132,0.003,0.265,0.003,0.398c0,0.417-0.005,0.831-0.018,1.245c-0.001,0.055-0.004,0.109-0.006,0.164
		c-0.011,0.359-0.024,0.718-0.043,1.074c-0.004,0.048-0.007,0.095-0.009,0.142c-0.021,0.366-0.046,0.731-0.075,1.094
		c-0.002,0.025-0.006,0.049-0.007,0.074c-0.032,0.386-0.068,0.772-0.111,1.156c0,0,0,0.001,0,0.001
		c-0.168,1.562-0.416,3.1-0.739,4.609l-0.007,0.008c-0.012,0.058-0.022,0.118-0.035,0.177l-1.105,1.471l0.004-10.287l-7.187,0.398
		l-9.915,5.011l-0.1,3.528h0.323l5.191-0.002l0.948-0.57l7.535-4.74L55.1,51.097l-3.245,3.896c0,0-1.297,1.096-1.297,2.791
		c0,0.801,0.446,2.919,0.917,4.93c-0.027,0.034-0.058,0.07-0.086,0.104c0.003,0.02,0.008,0.039,0.014,0.059
		c-0.343,0.425-0.693,0.845-1.051,1.257c-4.747-5.741-9.056-8.877-9.064-8.883H39.59h-1.697c-0.008,0.006-4.317,3.142-9.064,8.883
		c-0.357-0.412-1.115-1.321-1.143-1.357c0.47-2.01,0.935-4.191,0.935-4.992c0-1.695-1.295-2.791-1.295-2.791l-3.254-3.853l0-10.385
		l8.483,5.313l5.515,0.002l-0.1-3.528l-9.915-5.01l-7.193-0.405l0.02,10.285l-1.114-1.462c-0.014-0.06-0.613-3.234-0.782-4.795
		c0-0.001,0-0.002,0-0.002c-0.042-0.383-0.08-0.77-0.11-1.156c-0.003-0.024-0.005-0.05-0.007-0.075
		c-0.029-0.363-0.054-0.727-0.074-1.093c-0.003-0.047-0.007-0.095-0.01-0.142c-0.02-0.356-0.033-0.716-0.044-1.075
		c-0.002-0.054-0.005-0.109-0.007-0.164c-0.011-0.415-0.017-0.829-0.017-1.245c0-0.133,0.002-0.266,0.004-0.398
		c-0.004-0.024-0.008-0.048-0.008-0.074v-5.36l0,0c0-0.017,0-0.033,0-0.049v-0.289c0-0.013,0.003-0.025,0.004-0.038v0.009v0.037
		h0.004c-0.002-0.013-0.004-0.024-0.004-0.037c0-0.347,0.282-0.629,0.629-0.629c0.009,0,0.018,0.002,0.025,0.002l0,0
		c0.09,0,0.18-0.004,0.27-0.005c7.466-0.138,14.216-3.188,19.168-8.063c0.169-0.236,0.445-0.391,0.757-0.391
		c0.008,0,0.015,0.002,0.023,0.002s0.016-0.002,0.023-0.002c0.314,0,0.588,0.154,0.757,0.391c4.953,4.875,11.703,7.926,19.169,8.063
		c0.09,0.001,0.179,0.005,0.27,0.005l0,0c0.008,0,0.016-0.002,0.024-0.002c0.349,0,0.63,0.282,0.63,0.629
		c0,0.013-0.002,0.024-0.004,0.037h0.004v-0.037v-0.009c0.001,0.013,0.003,0.024,0.003,0.038v0.289
		C60.468,30.336,60.469,30.353,60.469,30.369z M38.326,58.059h2.529c3.194,2.008,5.96,4.567,8.351,7.395
		c-0.066,0.071-3.651,3.54-5.552,5.003c-0.675-2.28-1.371-4.633-1.777-6.011c-0.193-0.558-0.4-1.213-1.47-1.213
		c-0.545,0-1.137,0-1.634,0c-1.068,0-1.276,0.655-1.468,1.213c-0.409,1.378-1.103,3.73-1.777,6.011
		c-1.901-1.463-5.479-4.94-5.546-5.012C32.373,62.618,35.132,60.066,38.326,58.059z"/>
	<path fill="#EFC96E" d="M70.633,22.45v0.056c-1.616,2.573-3.687,5.12-6.178,7.479c-0.694,0.659-1.402,1.278-2.119,1.866
		c-0.001,0.001-0.002,0.002-0.003,0.002c-0.188,0.156-0.377,0.307-0.567,0.457c-0.051,0.04-0.101,0.083-0.152,0.123v2.705
		c0,0.027-0.004,0.052-0.007,0.078c0,0.14,0.003,0.28,0.003,0.421c0,2.967-0.274,5.87-0.791,8.688l-2.51,3.098
		c0-2.494-0.071-7.623-0.071-9.372c-0.016-0.384-0.405-0.379-0.876-0.371c-1.105-0.007-5.764,0.003-5.764,0.003l-10.154,4.872
		l-0.01,12.853h-3.684l-0.01-12.853l-10.154-4.872c0,0-4.658-0.01-5.764-0.003c-0.471-0.009-0.861-0.015-0.876,0.371
		c0,1.749-0.063,6.867-0.063,9.364l-2.518-3.09c-0.518-2.818-0.791-5.721-0.791-8.688c0-0.141,0.001-0.28,0.002-0.42
		c-0.003-0.026-0.007-0.051-0.007-0.078v-2.706c-0.051-0.04-0.101-0.082-0.151-0.123c-0.191-0.149-0.379-0.301-0.568-0.456
		c-0.001-0.001-0.002-0.002-0.004-0.003c-0.716-0.587-1.424-1.207-2.119-1.865c-2.491-2.36-4.562-4.907-6.177-7.479v-0.056
		c-0.209-0.338-0.333-0.735-0.333-1.162c0-0.426,0.124-0.823,0.333-1.161V20.1c2.022-3.142,4.826-6.249,8.289-8.987
		c2.494-1.972,5.096-3.567,7.672-4.77c0,0,0,0.001-0.001,0.001c0.001,0,0.001-0.001,0.003-0.001
		c-0.63,0.754-1.244,1.544-1.836,2.367c-2.577,3.585-4.419,7.345-5.499,10.92l-0.002,0.004l0.007,0.024
		c-0.108,0.381-0.368,0.812-0.124,1.183c0.259,0.392,0.54,0.679,0.758,1.043c0.001,0.002,0.004,0.005,0.007,0.006l0.015,0.054
		c1.484,1.332,3.159,2.596,4.994,3.757c0.038,0.025,0.074,0.048,0.111,0.072c0.208,0.13,0.419,0.258,0.631,0.385
		c0.058,0.036,0.117,0.072,0.175,0.106c5.404-2.201,9.973-4.243,15.168-6.722c0,0,0.363-0.196,0.649-0.199
		c0.007,0,0.017,0.002,0.023,0.003c0.007-0.001,0.016-0.003,0.023-0.003c0.287,0.003,0.649,0.199,0.649,0.199
		c5.195,2.479,9.764,4.521,15.168,6.722c0.061-0.035,0.117-0.07,0.176-0.106c0.212-0.127,0.422-0.255,0.63-0.385
		c0.037-0.024,0.075-0.047,0.112-0.072c1.834-1.161,3.51-2.425,4.993-3.757l0.016-0.054c0.002-0.001,0.004-0.004,0.006-0.006
		c0.219-0.364,0.5-0.651,0.759-1.043c0.244-0.371-0.015-0.801-0.125-1.183l0.007-0.024l-0.002-0.004
		c-1.08-3.576-2.922-7.335-5.499-10.92c-0.592-0.823-1.206-1.613-1.836-2.367c0.002,0,0.003,0.001,0.003,0.001s0-0.001-0.001-0.001
		c2.577,1.203,5.179,2.798,7.671,4.77c3.463,2.739,6.27,5.845,8.291,8.987v0.028c0.21,0.338,0.333,0.735,0.333,1.161
		C70.965,21.716,70.843,22.113,70.633,22.45z"/>
	<g>
		<path fill="#323333" d="M84.852,68.246l2.708-3.121h8.737l1.723,8.198l-4.504,0.02l-1.273-5.097H84.852L84.852,68.246z
			 M88.224,63.923l2.656-2.979h4.503l0.664,2.979H88.224z"/>
		<path fill="#323333" d="M110.848,65.124l-0.803,3.295c-0.31,1.253-0.815,2.262-1.518,3.025c-0.023,0.024-0.102,0.085-0.232,0.18
			l1.471,1.699h-3.296l-0.358-0.377c-0.73,0.251-1.447,0.377-2.152,0.377h-2.1c-2.034,0-3.295-0.621-3.786-1.866
			c-0.12-0.311-0.18-0.711-0.18-1.202c0-0.574,0.079-1.166,0.233-1.775l0.897-3.354h4.216l-1.256,4.43
			c-0.06,0.204-0.089,0.348-0.089,0.432c0,0.238,0.119,0.394,0.358,0.466h1.704l-1.489-1.705h3.283l0.969-3.623H110.848
			L110.848,65.124z M111.153,63.923H99.312c0.228-0.742,0.646-1.412,1.256-2.01c0.682-0.646,1.387-0.969,2.117-0.969h6.136
			c1.566,0,2.351,0.819,2.351,2.458C111.171,63.57,111.164,63.743,111.153,63.923z"/>
		<path fill="#323333" d="M124.429,65.124l-2.189,8.199h-4.503l1.381-4.981l-2.619-2.393l-2.08,7.374h-4.108l2.242-8.199H124.429z
			 M125.559,60.944l-0.897,2.997H112.91l0.843-2.997h4.073l2.654,2.529l0.646-2.529H125.559z"/>
		<path fill="#323333" d="M130.994,65.124l-2.242,8.199h-4.359l2.278-8.199H130.994z M132.089,60.944l-0.825,3.014h-4.323
			l0.861-3.014H132.089z"/>
		<path fill="#323333" d="M144.647,65.124l-2.261,8.181l-6.566,0.019c-2.057,0-3.331-0.616-3.821-1.848
			c-0.131-0.335-0.197-0.67-0.197-1.005c0-0.191,0.024-0.371,0.071-0.539l1.328-4.808h3.982l-1.273,4.448
			c-0.06,0.204-0.089,0.354-0.089,0.449c0,0.24,0.118,0.396,0.357,0.467h2.871l1.508-5.364H144.647L144.647,65.124z M138.314,60.998
			l-0.825,2.961h-4.036l0.843-2.942L138.314,60.998z M145.777,60.998l-0.842,2.961h-4.092l0.825-2.961H145.777z"/>
		<path fill="#323333" d="M145.461,73.323l0.754-2.619h2.72l-0.735,2.619H145.461z"/>
		<path fill="#323333" d="M161.206,69.986l-0.933,3.337h-5.687c-1.975,0-3.23-0.626-3.769-1.879
			c-0.167-0.383-0.222-0.914-0.161-1.595c0.012-0.13,0.035-0.369,0.072-0.715l1.058-3.993l4.449-0.018l-1.292,3.951
			c0.036,0.154,0.072,0.314,0.107,0.481c0.107,0.216,0.329,0.358,0.663,0.43H161.206z M163.754,60.944l-0.88,3.014h-10.746
			c0.228-0.766,0.646-1.44,1.256-2.026c0.682-0.658,1.388-0.987,2.117-0.987H163.754z"/>
		<path fill="#323333" d="M176.725,65.106l-0.071,0.288c-0.191,0.622-0.52,1.757-0.987,3.408c-0.299,1.04-0.759,1.913-1.382,2.618
			c-1.124,1.269-2.631,1.902-4.521,1.902h-2.135c-1.148,0-2.057-0.215-2.728-0.646c-0.824-0.515-1.237-1.311-1.237-2.386
			c0-0.575,0.089-1.185,0.269-1.83l0.898-3.32h4.179l-1.237,4.359c-0.048,0.205-0.072,0.36-0.072,0.468
			c0,0.239,0.107,0.389,0.323,0.448h2.602c0.322-0.084,0.563-0.389,0.718-0.916l1.291-4.377L176.725,65.106z M176.976,63.958
			h-11.822c0.239-0.813,0.646-1.5,1.22-2.063c0.706-0.682,1.435-1.022,2.188-1.022h6.1c1.543,0,2.314,0.819,2.314,2.458
			C176.976,63.737,176.976,63.946,176.976,63.958z"/>
		<path fill="#323333" d="M192.477,65.124l-2.315,8.199h-4.467l2.046-7.374l-3.032,2.459l-2.512-2.459l-2.081,7.374h-4.145
			l2.279-8.199H192.477z M193.606,60.944l-0.843,3.014h-14.209l0.843-3.014h4.198l2.494,2.386l3.05-2.386H193.606z"/>
	</g>
	<g>
		<path fill="#4F949D" d="M85.491,34.877h10.766c0.817-1.729,1.586-3.505,2.309-5.33l5.72,1.492l-2.095,3.837h18.438v4.476h-6.466
			c-1.114,3.269-2.683,5.945-4.708,8.029l10.215,3.872l-2.56,4.762l-12.096-5.294c-4.027,2.227-9.707,3.943-17.037,5.152
			c-0.971-1.966-1.812-3.554-2.522-4.761c5.602-0.688,10.113-1.664,13.536-2.932c-3.126-1.279-5.934-2.386-8.42-3.322
			c1.197-1.764,2.321-3.6,3.376-5.507H85.49L85.491,34.877L85.491,34.877z M99.524,21.874l5.862-1.173l1.351,3.802h12.612v7.745
			h-5.151v-3.34h-22.17v3.198h-5.151v-7.603h13.642C100.188,23.579,99.856,22.703,99.524,21.874z M97.465,42.906l6.786,2.523
			c1.823-1.433,3.226-3.458,4.209-6.076h-8.828C98.874,40.645,98.151,41.829,97.465,42.906z"/>
		<path fill="#4F949D" d="M123.329,50.013h13.43v-4.264h-10.588v-4.547h10.588v-3.589h-6.857v-2.806
			c-1.563,1.113-3.233,2.203-5.009,3.268c-0.688-0.97-1.741-2.356-3.163-4.156c7.579-4.075,12.719-8.432,15.42-13.074h6.218
			l-0.925,1.35c3.057,4.382,7.947,8.148,14.674,11.298c-1.256,1.563-2.32,2.96-3.197,4.192c-1.776-0.948-3.435-1.942-4.974-2.985
			v2.914h-6.894v3.588h10.694v4.547h-10.694v4.265h13.466v4.547h-32.188V50.013L123.329,50.013z M139.424,25.959
			c-1.943,2.463-4.358,4.832-7.248,7.105h14.495C143.829,30.887,141.412,28.518,139.424,25.959z"/>
		<path fill="#4F949D" d="M158.537,39.318h15.135v-7.141h-7.034c-1.089,2.511-2.321,4.844-3.694,7
			c-1.113-0.877-2.487-1.859-4.122-2.949c2.535-4.169,4.453-8.704,5.757-13.607l5.044,1.031c-0.367,1.338-0.763,2.628-1.19,3.872
			h5.241v-6.679h5.508v6.679h10.979v4.655h-10.979v7.141h13.891v4.654h-13.891v11.832h-5.508V43.973h-15.135L158.537,39.318
			L158.537,39.318z"/>
	</g>
</g>
</svg>
